<svg xmlns="http://www.w3.org/2000/svg" width="58.983" height="35.991" viewBox="0 0 58.983 35.991"><defs><style>.a{fill:#404040;}</style></defs><g transform="translate(-1089.899 -4767.522)"><ellipse class="a" cx="7.264" cy="7.264" rx="7.264" ry="7.264" transform="translate(1093.801 4767.522)"/><path class="a" d="M25.7,34.7A7.653,7.653,0,0,0,19.1,31H13.684a7.71,7.71,0,0,0-7.66,6.8L5.3,44.076a1.713,1.713,0,0,0,1.255,1.783,47.348,47.348,0,0,0,9.84.991,42.971,42.971,0,0,0,5.085-.264l.66-5.415A10.54,10.54,0,0,1,25.7,34.7Z" transform="translate(1084.607 4753.032)"/><ellipse class="a" cx="7.264" cy="7.264" rx="7.264" ry="7.264" transform="translate(1130.517 4767.522)"/><path class="a" d="M73.045,46.783a47.348,47.348,0,0,0,9.84-.991,1.667,1.667,0,0,0,1.255-1.783l-.726-6.274A7.757,7.757,0,0,0,75.753,31H70.338A7.544,7.544,0,0,0,63.8,34.7a9.6,9.6,0,0,1,3.5,6.472l.66,5.415C69.611,46.717,71.328,46.783,73.045,46.783Z" transform="translate(1064.736 4753.032)"/><path class="a" d="M47,36.5H41.584a7.71,7.71,0,0,0-7.66,6.8L33.2,49.576a1.649,1.649,0,0,0,1.255,1.783,49.365,49.365,0,0,0,19.679,0,1.667,1.667,0,0,0,1.255-1.783L54.659,43.3A7.71,7.71,0,0,0,47,36.5Z" transform="translate(1075.132 4751.164)"/><ellipse class="a" cx="7.264" cy="7.264" rx="7.264" ry="7.264" transform="translate(1112.159 4771.155)"/></g></svg>