<svg xmlns="http://www.w3.org/2000/svg" width="64" height="49.7" viewBox="0 0 64 49.7"><defs><style>.a{fill:#404040;}</style></defs><g transform="translate(-1 -8.2)"><path class="a" d="M3,28.1H17.9v7.4H2a1,1,0,0,1-1-1V30.1A2.006,2.006,0,0,1,3,28.1Z"/><path class="a" d="M36.8,30.1v4.4a1,1,0,0,1-1,1H19.9V28.1H34.8A2.006,2.006,0,0,1,36.8,30.1Z"/><path class="a" d="M26.9,42.1l1.4-.1-3-3.7a.831.831,0,0,1-.3-.7H20.3l5.6,6.3C26,43.6,25.7,42.2,26.9,42.1Z"/><path class="a" d="M9.6,41.9c.7.2,2.1-.1,2.2,1l.1.9,5.6-6.3H12.8a1.421,1.421,0,0,1-.2.6Z"/><path class="a" d="M12,46.9l5.9-6.7V57.8H5.1a2.006,2.006,0,0,1-2-2V37.6h7.5L6.9,42.2a.991.991,0,0,0,.7,1.6L10,44l.3,2.4A.959.959,0,0,0,12,46.9Z"/><path class="a" d="M34.8,37.6V55.9a2.006,2.006,0,0,1-2,2H19.9V40.2l5.9,6.7a.951.951,0,0,0,1.7-.5l.3-2.4,2.4-.3a.991.991,0,0,0,.7-1.6l-3.7-4.6h7.6Z"/><path class="a" d="M54.5,49.8H41.4a2.006,2.006,0,0,1,2-2h9.1A2.006,2.006,0,0,1,54.5,49.8Z"/><path class="a" d="M57.7,53.8v3a.945.945,0,0,1-1,1H39.3a1,1,0,0,1-1-1v-3a2.006,2.006,0,0,1,2-2H55.7A2.006,2.006,0,0,1,57.7,53.8Z"/><path class="a" d="M50.8,33.5V45.8H45.1V33.5a13.329,13.329,0,0,0,2.8.3A12.921,12.921,0,0,0,50.8,33.5Z"/><path class="a" d="M62.2,9.8H61v2h1.2a.789.789,0,0,1,.8.8v1.5a6.792,6.792,0,0,1-2.1,4.7v2.5A8.233,8.233,0,0,0,65,14.2V12.7A2.883,2.883,0,0,0,62.2,9.8Z"/><path class="a" d="M35.1,20.9V19.2A4.932,4.932,0,0,1,33,15.1V12.7a.817.817,0,0,1,.9-.8h1.2v-2H33.9A2.883,2.883,0,0,0,31,12.7v2.4a7.1,7.1,0,0,0,4.1,6.4Q35.1,21.2,35.1,20.9Z"/><path class="a" d="M57.9,8.2H38.1a1,1,0,0,0-1,1V21a10.9,10.9,0,0,0,21.8,0V9.2A.945.945,0,0,0,57.9,8.2ZM47.7,27.1a1,1,0,0,1,0-2,4.481,4.481,0,0,0,4.5-4.5,1,1,0,1,1,2,0A6.487,6.487,0,0,1,47.7,27.1Z"/></g></svg>