<svg xmlns="http://www.w3.org/2000/svg" width="25.385" height="17.43" viewBox="0 0 25.385 17.43"><defs><style>.a{fill:#3cbcb4;}</style></defs><g transform="translate(57.885 48.23) rotate(180)"><g transform="translate(32.5 30.8)"><path class="a" d="M52.868,38.466H57.93a7.969,7.969,0,0,1-1.591,4.773A8.4,8.4,0,0,1,52,45.7l2.387,2.531c3.255-1.013,5.641-2.459,7.16-4.412,1.157-1.446,1.736-3.833,1.736-7.015v-6H52.868Z" transform="translate(-37.897 -30.8)"/><path class="a" d="M33.368,38.466H38.43a7.521,7.521,0,0,1-1.591,4.773A8.4,8.4,0,0,1,32.5,45.7l2.387,2.531c3.255-1.013,5.641-2.459,7.16-4.412,1.157-1.446,1.736-3.833,1.736-7.015v-6H33.368Z" transform="translate(-32.5 -30.8)"/></g></g></svg>