<svg xmlns="http://www.w3.org/2000/svg" width="64" height="64" viewBox="0 0 64 64"><defs><style>.a{fill:#3cbcb4;}</style></defs><path class="a" d="M2371,62a31.99,31.99,0,0,1-22.627-54.627,32,32,0,1,1,35.083,52.113A31.8,31.8,0,0,1,2371,62Zm-3.4-24.833h0l7.234,2.973c0,.024,0,.047-.008.07a1,1,0,0,0-.01.124,2.325,2.325,0,1,0,4.65,0,2.355,2.355,0,0,0-.069-.542l7.529-4.526a2.317,2.317,0,1,0-.792-1.735,2.271,2.271,0,0,0,.07.542l-7.53,4.525a2.292,2.292,0,0,0-3.309.252l-7.238-2.974c0-.025.005-.05.009-.074a.88.88,0,0,0,.011-.119,2.319,2.319,0,0,0-4.626-.239l-7,1.437a2.324,2.324,0,1,0,.281,1.367l6.994-1.437a2.3,2.3,0,0,0,3.8.357Zm-13.1-8.093a2.326,2.326,0,1,0,2.325,2.326,2.275,2.275,0,0,0-.069-.542l7.529-4.526a2.293,2.293,0,0,0,3.3-.239l7.249,3.041c0,.018,0,.036-.006.053l0,.022a1.022,1.022,0,0,0-.012.134,2.325,2.325,0,1,0,4.65,0,2.287,2.287,0,0,0-.212-.959l8.03-7.219a2.293,2.293,0,0,0,1.177.33,2.326,2.326,0,1,0-2.327-2.326,2.3,2.3,0,0,0,.214.962l-8.031,7.218a2.287,2.287,0,0,0-2.943.5l-7.247-3.04c0-.027.005-.054.009-.08a1.05,1.05,0,0,0,.011-.13,2.325,2.325,0,1,0-4.58.542l-7.53,4.526A2.318,2.318,0,0,0,2354.506,29.075Z" transform="translate(-2339 2)"/></svg>