<svg xmlns="http://www.w3.org/2000/svg" width="64" height="64" viewBox="0 0 64 64"><defs><style>.a{fill:#3cbcb4;}</style></defs><path class="a" d="M2371,64a32.008,32.008,0,0,1-12.456-61.485,32.008,32.008,0,0,1,24.912,58.97A31.8,31.8,0,0,1,2371,64Zm-2.051-15.94h0a3.486,3.486,0,0,0,2.333.883,2.9,2.9,0,0,0,2.615-1.629,2.9,2.9,0,0,0,.714.08,2.966,2.966,0,0,0,1.977-.715,3.535,3.535,0,0,0,1-1.345c.012,0,.072.007.169.007a3.526,3.526,0,0,0,2.086-.721,2.943,2.943,0,0,0,1.179-2.094v-.014a3.5,3.5,0,0,0,2.329-1.021,3.227,3.227,0,0,0,.1-4.51l-.52-.519c0-.017.333-2.049.463-2.862l2.746-2.8.387.376,4.016-4.128-9.815-9.55-4.016,4.129.3.3-1.847,1.728a1.007,1.007,0,0,1-.754.315,4.039,4.039,0,0,1-1.266-.327,6.971,6.971,0,0,0-2.343-.531h-.058a5.584,5.584,0,0,0-2.643.832l-.022-.008a11.091,11.091,0,0,1-1.237-.542l-1.288-1.145-.743-.661.212-.207-3.752-3.877-9.815,9.557,3.752,3.868.48-.466.576.572c.551.549,1.385,1.38,1.979,1.973a11.8,11.8,0,0,1,.366,1.682c.1.528.19,1.028.253,1.274l-.029.018a3.769,3.769,0,0,0-1.964,2.981,2.994,2.994,0,0,0,2.03,2.8,2.93,2.93,0,0,0,3.13,3.051,2.39,2.39,0,0,0,.336-.019,2.937,2.937,0,0,0,2.452,1.723,2.733,2.733,0,0,0,.7,1.2,2.816,2.816,0,0,0,1.917.8,2.865,2.865,0,0,0,1.514-.46Zm-1.6-.54a1.454,1.454,0,0,1-1.092-.538,1.583,1.583,0,0,1-.417-1.669,2.228,2.228,0,0,1-.835.157,1.713,1.713,0,0,1-1.3-.544,1.985,1.985,0,0,1-.527-1.674,2.183,2.183,0,0,1-1.388.485,1.832,1.832,0,0,1-1.5-2.932.314.314,0,0,1-.076.006,3.5,3.5,0,0,1-1.742-.5,1.9,1.9,0,0,1,0-2.689l.859-.714a1.919,1.919,0,0,1,1.028-.343,1.961,1.961,0,0,1,1.332.674,1.836,1.836,0,0,1,.527,1.873,2.017,2.017,0,0,1,.555-.056,2.869,2.869,0,0,1,1.635.464,1.736,1.736,0,0,1,.582,1.779,1.465,1.465,0,0,1,.222-.011,2.531,2.531,0,0,1,1.694.55,2.3,2.3,0,0,1,.53,1.932,1.706,1.706,0,0,1,.4-.041,1.547,1.547,0,0,1,1.237.534,1.8,1.8,0,0,1-.109,2.259l-.84.746A1.322,1.322,0,0,1,2367.345,47.52ZM2382.068,35.6h0l-4.023-4.024a6.279,6.279,0,0,1-3.347.768,14.467,14.467,0,0,1-5.418-1.2l-3.156,2.907-.013.012-.013.013a2.458,2.458,0,0,1-1.593.681,2.186,2.186,0,0,1-1.53-.692,2,2,0,0,1-.666-1.443,2.682,2.682,0,0,1,.661-1.68l.008-.008.008-.008,5.131-5.4a3.944,3.944,0,0,1,2.544-1.368,4.075,4.075,0,0,1,1.954.384c.181.076.386.162.641.253a3.942,3.942,0,0,0,1.286.275,1.479,1.479,0,0,0,.946-.317c.021-.02,2.167-1.991,2.277-2.089l7.548,7.5s-.066.069-.17.176c-.465.478-1.7,1.747-2.486,2.532a1.681,1.681,0,0,0-.375,1.222,8.113,8.113,0,0,1-.212,1.515Zm4.437-5.9h0l-8.291-8.123,2.533-2.6,8.321,8.095-2.562,2.633Zm-5.594-9.026a.918.918,0,1,0,.919.918A.921.921,0,0,0,2380.911,20.679Zm-25.68,8.773h0l-2.3-2.371,8.32-8.094,2.3,2.372-8.319,8.093Zm5.855-8.764a.919.919,0,1,0,.919.919A.92.92,0,0,0,2361.087,20.688Z" transform="translate(-2339)"/></svg>