<svg xmlns="http://www.w3.org/2000/svg" width="64" height="64" viewBox="0 0 64 64"><defs><style>.a{fill:#3cbcb4;}</style></defs><path class="a" d="M2371,64a32.008,32.008,0,0,1-12.456-61.485,32.008,32.008,0,0,1,24.912,58.97A31.8,31.8,0,0,1,2371,64Zm-.049-26.3a.562.562,0,0,0-.519.352l-.9,2.143a.5.5,0,0,1-.469.335l-2.31.2a.552.552,0,0,0-.5.391.526.526,0,0,0,.161.58l1.741,1.507a.51.51,0,0,1,.167.569l-.537,2.244a.582.582,0,0,0,.116.493.539.539,0,0,0,.417.2.583.583,0,0,0,.305-.089l1.975-1.206a.577.577,0,0,1,.569,0l1.976,1.206a.559.559,0,0,0,.3.086.574.574,0,0,0,.455-.228.514.514,0,0,0,.086-.461l-.535-2.244a.687.687,0,0,1,.167-.569l1.741-1.507a.528.528,0,0,0,.277-.582.512.512,0,0,0-.478-.389l-2.31-.2a.568.568,0,0,1-.469-.335l-.9-2.143A.561.561,0,0,0,2370.951,37.7Zm11.217-1.708a.561.561,0,0,0-.519.352l-.9,2.143a.5.5,0,0,1-.468.335l-2.277.167a.552.552,0,0,0-.5.392.525.525,0,0,0,.161.579l1.741,1.507a.509.509,0,0,1,.167.57l-.536,2.243a.582.582,0,0,0,.115.494.538.538,0,0,0,.417.2.576.576,0,0,0,.305-.09l1.975-1.205a.575.575,0,0,1,.57,0l1.975,1.205a.558.558,0,0,0,.3.086.574.574,0,0,0,.454-.228.516.516,0,0,0,.087-.461l-.469-2.243a.689.689,0,0,1,.167-.57l1.74-1.473a.554.554,0,0,0-.335-.971l-2.31-.2a.554.554,0,0,1-.469-.335l-.87-2.143A.562.562,0,0,0,2382.167,35.991Zm-22.4,0a.561.561,0,0,0-.519.352l-.9,2.143a.5.5,0,0,1-.469.335l-2.31.167a.552.552,0,0,0-.5.391.525.525,0,0,0,.161.58l1.742,1.507a.511.511,0,0,1,.167.57l-.536,2.243a.585.585,0,0,0,.116.494.538.538,0,0,0,.416.2.576.576,0,0,0,.305-.09l1.976-1.205a.573.573,0,0,1,.569,0l1.975,1.205a.56.56,0,0,0,.3.086.573.573,0,0,0,.454-.228.514.514,0,0,0,.086-.461l-.469-2.243a.69.69,0,0,1,.167-.57l1.741-1.507a.522.522,0,0,0,.19-.579.546.546,0,0,0-.492-.392l-2.31-.2a.554.554,0,0,1-.469-.335l-.87-2.11A.562.562,0,0,0,2359.767,35.991Zm9.827-8.521a3.911,3.911,0,0,0-3.883,3.449l-.368,3.182a.838.838,0,0,0,.635.9,25.035,25.035,0,0,0,9.979,0,.845.845,0,0,0,.636-.9l-.368-3.182a3.913,3.913,0,0,0-3.884-3.449Zm-9.341-1.841a3.912,3.912,0,0,0-3.884,3.449L2356,32.258a.873.873,0,0,0,.636.9,24.035,24.035,0,0,0,4.989.5,21.632,21.632,0,0,0,2.579-.134l.334-2.746a5.364,5.364,0,0,1,1.808-3.281A3.881,3.881,0,0,0,2363,25.628Zm18.65,0a3.85,3.85,0,0,0-3.315,1.875,4.88,4.88,0,0,1,1.775,3.281l.335,2.746c.837.067,1.7.1,2.578.1a24.05,24.05,0,0,0,4.99-.5.845.845,0,0,0,.636-.9l-.369-3.181a3.951,3.951,0,0,0-3.884-3.415Zm-7.935-6.53a3.683,3.683,0,1,0,3.683,3.684A3.688,3.688,0,0,0,2370.967,19.1Zm9.308-1.841a3.683,3.683,0,1,0,3.684,3.683A3.687,3.687,0,0,0,2380.275,17.257Zm-18.617,0a3.683,3.683,0,1,0,3.684,3.683A3.687,3.687,0,0,0,2361.658,17.257Z" transform="translate(-2339)"/></svg>