<svg xmlns="http://www.w3.org/2000/svg" width="64" height="64" viewBox="0 0 64 64"><defs><style>.a{fill:#3cbcb4;}</style></defs><path class="a" d="M2371,64a32.008,32.008,0,0,1-12.456-61.485,32.008,32.008,0,0,1,24.912,58.97A31.8,31.8,0,0,1,2371,64Zm-15.995-27.4a1,1,0,0,0-1.122.9v6.434a1,1,0,0,0,1.123.9,2.739,2.739,0,0,0,.462-.043,10.158,10.158,0,0,1,1.814-.183c.322,0,.621.019.968.041l.042,0c.81.053,12.562.164,15.335.164.343,0,.552,0,.619,0s.151,0,.233,0c.645,0,1.621-.009,3.989-1.714a2.963,2.963,0,0,1,2.008-.638c.221-.007.472-.016.764-.043.694-.067,2.662-.094,3.561-.094h.21v.016a.924.924,0,0,0,.5.112.823.823,0,0,0,.506-.127v-.023l.16,0c.138,0,.265.005.368.009.067,0,.122,0,.161,0a.442.442,0,0,0,.41-.385v-2.41a.442.442,0,0,0-.41-.384c-.038,0-.092,0-.155.005-.1,0-.227.01-.362.01-.06,0-.117,0-.172,0v-.024a.829.829,0,0,0-.507-.126.93.93,0,0,0-.5.11v.018h-.25c-.893,0-2.842-.027-3.521-.094-.292-.028-.543-.036-.764-.044a2.977,2.977,0,0,1-2.008-.637c-2.368-1.7-3.344-1.71-3.989-1.714-.082,0-.159,0-.233,0s-.283,0-.638,0c-2.768,0-14.5.112-15.315.164-.358.023-.667.043-1,.043a10.35,10.35,0,0,1-1.825-.183A2.715,2.715,0,0,0,2355.005,36.6Zm0-9a1,1,0,0,0-1.122.9v6.434a1,1,0,0,0,1.123.9,2.739,2.739,0,0,0,.462-.043,10.158,10.158,0,0,1,1.814-.183c.322,0,.621.019.968.041l.042,0c.81.053,12.562.164,15.335.164.343,0,.552,0,.619,0s.151,0,.233,0c.645,0,1.621-.009,3.989-1.714a2.962,2.962,0,0,1,2.008-.638c.221-.007.472-.016.764-.043.686-.066,2.653-.093,3.554-.093h.217v.015a.919.919,0,0,0,.5.112.815.815,0,0,0,.5-.126V33.3l.161,0c.139,0,.267.005.37.009.066,0,.122,0,.16,0a.442.442,0,0,0,.41-.385v-2.41a.442.442,0,0,0-.41-.384c-.038,0-.093,0-.157.005-.1,0-.225.01-.361.01-.06,0-.118,0-.173,0v-.024a.824.824,0,0,0-.506-.126.923.923,0,0,0-.5.11v.018h-.274c-.883,0-2.816-.028-3.5-.094-.291-.028-.541-.036-.762-.044a2.978,2.978,0,0,1-2.01-.638c-2.368-1.7-3.344-1.71-3.989-1.714-.082,0-.159,0-.233,0s-.283,0-.638,0c-2.768,0-14.5.112-15.315.164-.36.023-.671.044-1,.044a10.289,10.289,0,0,1-1.822-.183A2.713,2.713,0,0,0,2355.005,27.6Zm0-8.973a1,1,0,0,0-1.122.9v6.434a1,1,0,0,0,1.122.9,2.674,2.674,0,0,0,.462-.044,10.188,10.188,0,0,1,1.812-.182c.323,0,.623.019.969.041l.043,0c.81.053,12.562.164,15.335.164.343,0,.552,0,.619,0s.151,0,.233,0c.645,0,1.621-.009,3.989-1.714a2.961,2.961,0,0,1,2.007-.638c.221-.007.472-.016.764-.043.685-.067,2.653-.094,3.555-.094h.216v.016a.918.918,0,0,0,.5.112.823.823,0,0,0,.506-.127v-.023l.161,0c.138,0,.266.005.369.009.068,0,.123,0,.161,0a.441.441,0,0,0,.408-.385v-2.41a.441.441,0,0,0-.408-.385c-.039,0-.094,0-.159.005-.1,0-.228.01-.365.01-.058,0-.115,0-.167,0v-.024a.83.83,0,0,0-.508-.127.919.919,0,0,0-.5.11v.018h-.25c-.892,0-2.841-.027-3.521-.094-.292-.028-.543-.036-.764-.044a2.975,2.975,0,0,1-2.007-.637c-2.37-1.7-3.344-1.71-3.989-1.714-.082,0-.159,0-.233,0s-.283,0-.638,0c-2.768,0-14.5.112-15.315.164-.358.023-.667.043-1,.043a10.35,10.35,0,0,1-1.825-.183A2.721,2.721,0,0,0,2355.006,18.628Z" transform="translate(-2339)"/></svg>